<mxfile host="app.diagrams.net" modified="2021-05-04T14:50:22.861Z" agent="5.0 (Windows)" etag="kLDvzZZoZoOxIP8EYs7w" version="14.6.9" type="github">
  <diagram id="4fd6TbouU1RvE8j10C3i" name="Page-1">
    <mxGraphModel dx="782" dy="551" grid="1" gridSize="10" guides="1" tooltips="1" connect="1" arrows="1" fold="1" page="1" pageScale="1" pageWidth="827" pageHeight="1169" math="0" shadow="0">
      <root>
        <mxCell id="0" />
        <mxCell id="1" parent="0" />
        <mxCell id="a2b0RXaYXDIeXqXKKZ-i-1" value="" style="whiteSpace=wrap;html=1;dashed=1;" vertex="1" parent="1">
          <mxGeometry x="110" y="210" width="140" height="260" as="geometry" />
        </mxCell>
        <mxCell id="a2b0RXaYXDIeXqXKKZ-i-2" value="等价语义转换" style="text;html=1;align=center;verticalAlign=middle;whiteSpace=wrap;rounded=0;dashed=1;labelBackgroundColor=none;fillColor=#ffffff;" vertex="1" parent="1">
          <mxGeometry x="135" y="180" width="90" height="60" as="geometry" />
        </mxCell>
        <mxCell id="a2b0RXaYXDIeXqXKKZ-i-6" value="" style="endArrow=classic;html=1;" edge="1" parent="1">
          <mxGeometry width="50" height="50" relative="1" as="geometry">
            <mxPoint x="250" y="280" as="sourcePoint" />
            <mxPoint x="300" y="280" as="targetPoint" />
          </mxGeometry>
        </mxCell>
        <mxCell id="a2b0RXaYXDIeXqXKKZ-i-7" value="" style="whiteSpace=wrap;html=1;aspect=fixed;dashed=1;" vertex="1" parent="1">
          <mxGeometry x="300" y="210" width="140" height="140" as="geometry" />
        </mxCell>
        <mxCell id="a2b0RXaYXDIeXqXKKZ-i-8" value="模型导入与训练" style="text;html=1;align=center;verticalAlign=middle;whiteSpace=wrap;rounded=0;dashed=1;labelBackgroundColor=none;fillColor=#ffffff;" vertex="1" parent="1">
          <mxGeometry x="325" y="180" width="90" height="60" as="geometry" />
        </mxCell>
        <mxCell id="a2b0RXaYXDIeXqXKKZ-i-9" value="&lt;div&gt;模型&lt;/div&gt;&lt;div&gt;导入&lt;br&gt;&lt;/div&gt;" style="whiteSpace=wrap;html=1;aspect=fixed;labelBackgroundColor=none;fillColor=#5B4FFF;" vertex="1" parent="1">
          <mxGeometry x="310" y="230" width="50" height="50" as="geometry" />
        </mxCell>
        <mxCell id="a2b0RXaYXDIeXqXKKZ-i-10" value="&lt;div&gt;超参数&lt;/div&gt;&lt;div&gt;调整&lt;/div&gt;" style="whiteSpace=wrap;html=1;aspect=fixed;labelBackgroundColor=none;fillColor=#3399FF;" vertex="1" parent="1">
          <mxGeometry x="380" y="230" width="50" height="50" as="geometry" />
        </mxCell>
        <mxCell id="a2b0RXaYXDIeXqXKKZ-i-11" value="&lt;div&gt;优化器&lt;/div&gt;&lt;div&gt;设置&lt;br&gt;&lt;/div&gt;" style="whiteSpace=wrap;html=1;aspect=fixed;labelBackgroundColor=none;fillColor=#7EA6E0;" vertex="1" parent="1">
          <mxGeometry x="310" y="290" width="50" height="50" as="geometry" />
        </mxCell>
        <mxCell id="a2b0RXaYXDIeXqXKKZ-i-12" value="&lt;div&gt;迭代&lt;/div&gt;&lt;div&gt;训练&lt;br&gt;&lt;/div&gt;" style="whiteSpace=wrap;html=1;aspect=fixed;labelBackgroundColor=none;fillColor=#99CCFF;" vertex="1" parent="1">
          <mxGeometry x="380" y="290" width="50" height="50" as="geometry" />
        </mxCell>
        <mxCell id="a2b0RXaYXDIeXqXKKZ-i-13" value="" style="whiteSpace=wrap;html=1;aspect=fixed;dashed=1;" vertex="1" parent="1">
          <mxGeometry x="490" y="210" width="140" height="140" as="geometry" />
        </mxCell>
        <mxCell id="a2b0RXaYXDIeXqXKKZ-i-14" value="模型预测" style="text;html=1;align=center;verticalAlign=middle;whiteSpace=wrap;rounded=0;dashed=1;labelBackgroundColor=none;fillColor=#ffffff;" vertex="1" parent="1">
          <mxGeometry x="515" y="180" width="90" height="60" as="geometry" />
        </mxCell>
        <mxCell id="a2b0RXaYXDIeXqXKKZ-i-15" value="&lt;div&gt;F1-score&lt;/div&gt;&lt;div&gt;计算&lt;br&gt;&lt;/div&gt;" style="whiteSpace=wrap;html=1;aspect=fixed;labelBackgroundColor=none;fillColor=#66CC00;" vertex="1" parent="1">
          <mxGeometry x="500" y="255" width="50" height="50" as="geometry" />
        </mxCell>
        <mxCell id="a2b0RXaYXDIeXqXKKZ-i-16" value="&lt;div&gt;相似度&lt;/div&gt;&lt;div&gt;预测&lt;br&gt;&lt;/div&gt;" style="whiteSpace=wrap;html=1;aspect=fixed;labelBackgroundColor=none;fillColor=#CCFF99;" vertex="1" parent="1">
          <mxGeometry x="570" y="255" width="50" height="50" as="geometry" />
        </mxCell>
        <mxCell id="a2b0RXaYXDIeXqXKKZ-i-17" value="" style="endArrow=classic;html=1;" edge="1" parent="1">
          <mxGeometry width="50" height="50" relative="1" as="geometry">
            <mxPoint x="440" y="250" as="sourcePoint" />
            <mxPoint x="490" y="250" as="targetPoint" />
          </mxGeometry>
        </mxCell>
        <mxCell id="a2b0RXaYXDIeXqXKKZ-i-18" value="" style="endArrow=classic;html=1;" edge="1" parent="1">
          <mxGeometry width="50" height="50" relative="1" as="geometry">
            <mxPoint x="490" y="314.5" as="sourcePoint" />
            <mxPoint x="440" y="314.5" as="targetPoint" />
          </mxGeometry>
        </mxCell>
        <mxCell id="a2b0RXaYXDIeXqXKKZ-i-19" value="CodeA" style="shape=note;whiteSpace=wrap;html=1;backgroundOutline=1;darkOpacity=0.05;size=18;" vertex="1" parent="1">
          <mxGeometry x="120" y="240" width="50" height="60" as="geometry" />
        </mxCell>
      </root>
    </mxGraphModel>
  </diagram>
</mxfile>
